<mxfile host="drawio-plugin" agent="Mozilla/5.0 (X11; Linux x86_64) AppleWebKit/537.36 (KHTML, like Gecko) Chrome/122.0.0.0 Safari/537.36" modified="2025-02-10T17:51:59.006Z" version="22.1.22" etag="CdlkqpKap-mbYDzLnMxy" type="embed">
  <diagram name="Library-management-system-app-diagiram" id="13Jr-Sfuqs4j8FrgoanV">
    <mxGraphModel dx="866" dy="362" grid="1" gridSize="10" guides="1" tooltips="1" connect="1" arrows="1" fold="1" page="1" pageScale="1" pageWidth="850" pageHeight="1100" math="0" shadow="0">
      <root>
        <mxCell id="0" />
        <mxCell id="1" parent="0" />
        <mxCell id="fVFUJvYwx3jM81SzizFd-1" value="&lt;b&gt;&lt;font style=&quot;font-size: 40px; color: rgb(0, 204, 0);&quot;&gt;Spring boot App&amp;nbsp;&lt;/font&gt;&lt;/b&gt;" style="rounded=0;whiteSpace=wrap;html=1;" parent="1" vertex="1">
          <mxGeometry x="280" y="70" width="430" height="140" as="geometry" />
        </mxCell>
        <mxCell id="fVFUJvYwx3jM81SzizFd-2" value="&lt;b&gt;&lt;font style=&quot;font-size: 30px; color: rgb(255, 0, 0);&quot;&gt;Backend&lt;/font&gt;&lt;/b&gt;" style="text;strokeColor=none;align=center;fillColor=none;html=1;verticalAlign=middle;whiteSpace=wrap;rounded=0;" parent="1" vertex="1">
          <mxGeometry x="465" y="30" width="60" height="30" as="geometry" />
        </mxCell>
        <mxCell id="fVFUJvYwx3jM81SzizFd-4" value="" style="image;aspect=fixed;html=1;points=[];align=center;fontSize=12;image=img/lib/azure2/databases/Azure_Database_PostgreSQL_Server.svg;" parent="1" vertex="1">
          <mxGeometry x="770" y="115" width="48" height="64" as="geometry" />
        </mxCell>
        <mxCell id="fVFUJvYwx3jM81SzizFd-5" value="" style="endArrow=classic;startArrow=classic;html=1;rounded=0;exitX=0.991;exitY=0.55;exitDx=0;exitDy=0;exitPerimeter=0;" parent="1" source="fVFUJvYwx3jM81SzizFd-1" target="fVFUJvYwx3jM81SzizFd-4" edge="1">
          <mxGeometry width="50" height="50" relative="1" as="geometry">
            <mxPoint x="400" y="250" as="sourcePoint" />
            <mxPoint x="450" y="200" as="targetPoint" />
          </mxGeometry>
        </mxCell>
        <mxCell id="fVFUJvYwx3jM81SzizFd-7" value="&lt;b&gt;&lt;font style=&quot;font-size: 16px;&quot;&gt;PostgreSQL&lt;/font&gt;&lt;/b&gt;&lt;div&gt;&lt;br&gt;&lt;/div&gt;" style="text;html=1;align=center;verticalAlign=middle;resizable=0;points=[];autosize=1;strokeColor=none;fillColor=none;" parent="1" vertex="1">
          <mxGeometry x="735" y="180" width="120" height="50" as="geometry" />
        </mxCell>
        <mxCell id="fVFUJvYwx3jM81SzizFd-8" value="" style="html=1;verticalLabelPosition=bottom;align=center;labelBackgroundColor=#ffffff;verticalAlign=top;strokeWidth=2;strokeColor=#0080F0;shadow=0;dashed=0;shape=mxgraph.ios7.icons.mail;" parent="1" vertex="1">
          <mxGeometry x="110" y="70" width="30" height="16.5" as="geometry" />
        </mxCell>
        <mxCell id="fVFUJvYwx3jM81SzizFd-10" value="Mail Server" style="rounded=0;whiteSpace=wrap;html=1;" parent="1" vertex="1">
          <mxGeometry y="97.25" width="60" height="60" as="geometry" />
        </mxCell>
        <mxCell id="fVFUJvYwx3jM81SzizFd-11" value="" style="shape=cylinder3;whiteSpace=wrap;html=1;boundedLbl=1;backgroundOutline=1;size=15;direction=south;" parent="1" vertex="1">
          <mxGeometry x="100" y="98.25" width="130" height="60" as="geometry" />
        </mxCell>
        <mxCell id="fVFUJvYwx3jM81SzizFd-13" value="" style="html=1;verticalLabelPosition=bottom;align=center;labelBackgroundColor=#ffffff;verticalAlign=top;strokeWidth=2;strokeColor=#0080F0;shadow=0;dashed=0;shape=mxgraph.ios7.icons.mail;" parent="1" vertex="1">
          <mxGeometry x="150" y="70" width="30" height="16.5" as="geometry" />
        </mxCell>
        <mxCell id="fVFUJvYwx3jM81SzizFd-14" value="" style="html=1;verticalLabelPosition=bottom;align=center;labelBackgroundColor=#ffffff;verticalAlign=top;strokeWidth=2;strokeColor=#0080F0;shadow=0;dashed=0;shape=mxgraph.ios7.icons.mail;" parent="1" vertex="1">
          <mxGeometry x="190" y="70" width="30" height="16.5" as="geometry" />
        </mxCell>
        <mxCell id="fVFUJvYwx3jM81SzizFd-15" value="" style="endArrow=none;html=1;rounded=0;exitX=0.5;exitY=0;exitDx=0;exitDy=0;exitPerimeter=0;entryX=-0.009;entryY=0.421;entryDx=0;entryDy=0;entryPerimeter=0;" parent="1" source="fVFUJvYwx3jM81SzizFd-11" target="fVFUJvYwx3jM81SzizFd-1" edge="1">
          <mxGeometry width="50" height="50" relative="1" as="geometry">
            <mxPoint x="400" y="240" as="sourcePoint" />
            <mxPoint x="450" y="190" as="targetPoint" />
          </mxGeometry>
        </mxCell>
        <mxCell id="fVFUJvYwx3jM81SzizFd-16" value="" style="endArrow=none;html=1;rounded=0;exitX=1;exitY=0.5;exitDx=0;exitDy=0;entryX=0.5;entryY=1;entryDx=0;entryDy=0;entryPerimeter=0;" parent="1" source="fVFUJvYwx3jM81SzizFd-10" target="fVFUJvYwx3jM81SzizFd-11" edge="1">
          <mxGeometry width="50" height="50" relative="1" as="geometry">
            <mxPoint x="390" y="230" as="sourcePoint" />
            <mxPoint x="440" y="180" as="targetPoint" />
          </mxGeometry>
        </mxCell>
        <mxCell id="fVFUJvYwx3jM81SzizFd-19" value="" style="shape=image;verticalLabelPosition=bottom;labelBackgroundColor=default;verticalAlign=top;aspect=fixed;imageAspect=0;image=data:image/png,iVBORw0KGgoAAAANSUhEUgAAATUAAACjCAMAAADciXncAAAA6lBMVEX///9OTU6vrq6enJyop6eVkZKioKGbl5g9weaQjI26ubmXlZWlo6OysbELt+FJSEkEiao/Pj96enrl5eXFxcVtbG3V1NV+fn/Ozs53dXb19fXAv7+JiYlRUFHt7e22trc6h59PSEZDQkPc3NyHh4djYmNvbm+3sK5IV15OY2tRRECZsrwvvONEttispaM2bYAarNMtm7pEqsdcW1xHZ3IoeZIul7U+fJBJiJsYgZ5icnkRs9xkZ2lmtdCiuMFpnrFbt9WCs8V5t8yUtsR/pLOVp64UocZ1udCFnaensLRsmKiMmZ5For4xLzGE2DtuAAAKKUlEQVR4nO2ci3ebRhaHJR5SEEJaCxAIMLItQFknVpNVm223Thvn0STb9v//d3rvDMyMXpYS2Qfhc7+THMn4ceA7v5m5AzNqtQiCIAiCIAiCIAiCIAiCIAiCIAiCIAiCIAiCIAiCIAiCIAhiN9loD5Oo7lM8PXpnwz1cJXWf48kRDdt7OZvVfZanRvdqv7Xhbd1neWK4Z/ulQdi8us/ztJgc0ECRus/zpAgPilq7fdWp+0xPieVh0qCNpnWf6umgHTAUcIZB3ed6MkSKtOeI6unfyLkM27jusz0VEjEUXP7wL+TVZXXg+vUz5D/XImzLus/2RJjJoeCcSftjcFFqu/xxMGDafhQez6Z1n+9pkMuo/cSsDQaDsklevxoMXqK1G2GtfUXTUSDGCWibzTSfl1EbDN5c48HL/8JbHrafhbYrs+4zPgV8yS9V1AaD/8GXef4rvmVhe3abVyzHqXsMT6F4GceCF3woQFM38GVvOn87EGH7PJ+WOJphdDr9fkegb9LVbUZXYNsmYllZ85t45PQETNprJuq3Xm/qAAMZtt80gWOs0FcNbprsqqA3re6LPhpPOIt/l+3z3bzXQ2nzOxm2d3OpbV3aprXd0kwzceu+6iNxp8LaVzEUDAZTLg20vZTaPsy3SmPW+rucrVozeSPt1n3ZRyKbZ/xGRu39vJTmOC+UNnqPtP43SIOwhXVf91HMZNSUoWAAfRr2Xixs72TY3s+3SNtiTd9hzRRYdV/4UUhpfCh4wxR9mDtO2e07zlclbF93Rq3/TdJMq1f3lR9BKNvnR2aN1Wc3IM0Rw+X889qAsDVqijZ9hzVTJWtu0ZbKqE2VoeCro1jTtLkSthc7pfW3OlOsrUgzrX7dF//dxFurjrfzNWtK9XEzN+63tkuauU7S1OddO6oOPnZqirYboW1wt1iT1lmxtjlF4NMCnBKsabPrvvzvZHvVcTdft6aJ6gOKt11RY9q2S7P5RMpaFZc083nXWM6lPsqq4+V8I2uaqD6w/S52W9uQplfOSmsr3qwmTkcjXo9Np9VQwCegL5xNa5rGw8bmCZ8UUX00c88UXq+cCWuKOMupW8F3MNOq8n/OezU+Sm6VNn8jtX5U46UaslfpypytWhPeGlnqikmTM/+dDQXM2tvNbk1z1GJuIZwZq/GyNzG3W+PiskY+t0k1qY0NBeUNoU1rhjLCflprn0pj/BZrQEOn8J609pENBWVJtmrNMBZqMbfYIW1P1DatBQ2dHUSO1PZGVrJ3yoQKBknD+KRETTozlAoN33S7VXe28srVwYvSozFpjb01OZba1BtCVdbK4mJxoRRzImqG2T4HcqbtnMFk5e0cdZnnJUsmbdnO0VXGD+G7oIl1B2cqw6bcEPrMbnmwmCFfZDH3q9I+l+x54DDr6J2Cv/W7djcYtoeBbeviaeGwsE17gkchacvykJkFzaxxGa4cELSVG0JQvVZ17EIp5j4Ka52g1HKu62b5dmh1u+xQ15ZP8+GoabKjplX9TjvLGll1VPRk0fZeuSG0MHB6yaX9f1vV0dGFlElfLEha8tQNJ7q6Rinv5vyoKVaL5EFT5+6M1JBtVL0htOjwWTk0U/UWkhg9y0bJ8MXbYV5ZUdcQVkfPc3HoqtFRg+pDhu2DDNszsMa1LX7eUnVAmXHg0sodNH4VnFLqyhtCz+4qbX8qTxOqp1FQaeT7zdxD81dcjg1Rz6pPCFgxBlG7kE8T7hZGJS05LmpPYHWvnAYslPUJbzFsncUXdSjgD9lZfbZvQ8e9nMV1X/PxuLacEilh+5NV8cpQ8IVV+qzCzyZH8SS2yARiKxBfeMXCdnPNDvwkhoLX12Jj0BNoYMeTyqWS168qbdXaSBE1ZWVusx+cPxR9sZgZF5SyNvpXuQ4X1+myQxeX1c8Mi7rP90SQObrmM6dn4sjlL3wCKqS1z5q+IOih8GQbfX6B/HC5dkAuZr5q6hO5h0dOitqXDKW2WjtwVfe5ng6H7dhj7bPJy1oeGuvAYn+Y132mp0R0YNhoP9AKzkH7z2jv2RrLQ9po4+/wPDSH7Ku9au6is8ditD9s53Wf4+mR/n22h78b/Fzp0ZiN91H3GRIEQRAE0WjEdupoBkDxwWBVxoxVIuVyqXEYsocFrqcZhha7/L0Xq6upZo6dJPZUudObOo5TVSupoRl8bUeIy5Ue97IemTD02KVEYCUGfx4S9+J4Oo1b0bTX43WtqzkaWIumuFxGM/odB3SNdd2W1lI9sfDJX5L0xUEnGI2y8r17W/jsj4W3RbFs9k10kIXWUJqHV4LOcJtQ3ANruDeNRwe3umNcDLESsOO2QtWaa5m2aSUQNtuqNpZFATApw+b63Nos9/280QuKhDV4CZme2IvDmZwIoL8WW1IJrSvCmBnxeOzh6u/ZirXINO1En6XpGMKWlfny0NqofMzg5kXu4YvvL5v+ZJBbC0t5zJqaA9xzC7o0TZvC9yBiDtfk6eBUtWaYdrXnwsiSjC+5TQIWNp480AXWUkxa4++hs4yhtLIdgbWVyWYPtLU8aJdpK+oYshNnAdU7lbU0sU29+h40U7bmdjwKRjr857/ErEW+X+SNXcUswJDB+OhVbWbdWuqANohajGuPDGOlPwptkTUvseXGRS9LAvwjYGzSsoOgYD+ELXQ6gqTprcaDowBSfR3jAIqDQa9sRh7bAG/AhXuG0V9Ztq1Ycyw7Ed9LgyQDy+4EYzYuRhP2p8Caf+v7/ujxL+rR8ThxVQmgtRJ+IDIcRzMwivEWa2Z5wLAsuU4oAmvw2wZEDf4sFB9MFFgr8DN9mj5+Il6lrbx8VnZMp/Cv+riwEEo11hNty1oVMMc0s7WsRaMgwOEzLiY+ttfKmu8/+kU9Ol4Mymbwv+zYwFrYihjlT0SaY7CuDvu1lT5PsYb9mvge79d6MA6MiqLA9WpYiTBrmQmjQfNXr2FRG7WgbysLDoja2g1bYS3q9DviYQu26NAWndnKGJqBNWyZcpWf73Jrk6jl3+bnjV8pWerCNsrKKmieayUoWNO4SKfT0TWuybFmK9ZaBoStrCj0IAucVgghKz+dbDIpulW91pqd5/my6Y8HS2spNFSWAOjQPJdP4cteW1qL2B4zmBvEuBZ1htZML2REUWImgRW6rgczgxFELYGIlR+2Zk2KPKqstZxlnk9qutqHAns1fIWuLcaQlZ+vxnYI8RzBIKpVU0ldbNO29QitwfQJgYmnG2RZhlOBDLqzFMuOoiqJx0WRO9WMCpruMl82/LFqXFpreZCyWWWNIawZetVoU6N0ZuIIG1psFyOYw52eqT1CcdmoAKFQ4Y580Q5HUKe13GXZoUX5cjls9tOuatbeiuIY26gn6ZXWHJE1wI37um7wPnDcZx/ngRbZ1zPHyjLLwb8XJbYtb6F5EMBxCmMqtz+Dwvcp1LoEQRAEQRAEQRAEQRAEQRAEQRAEQRAEQRAEQRAEQRAEQRAEQRAEQRzJP0l7O5KnL3nQAAAAAElFTkSuQmCC;" parent="1" vertex="1">
          <mxGeometry x="79.69" y="260" width="170.61" height="90" as="geometry" />
        </mxCell>
        <mxCell id="fVFUJvYwx3jM81SzizFd-21" value="" style="shape=flexArrow;endArrow=classic;startArrow=classic;html=1;rounded=0;entryX=0;entryY=0.75;entryDx=0;entryDy=0;" parent="1" target="fVFUJvYwx3jM81SzizFd-1" edge="1">
          <mxGeometry width="100" height="100" relative="1" as="geometry">
            <mxPoint x="155" y="260" as="sourcePoint" />
            <mxPoint x="255" y="160" as="targetPoint" />
          </mxGeometry>
        </mxCell>
        <mxCell id="fVFUJvYwx3jM81SzizFd-23" value="&lt;b&gt;&lt;font style=&quot;font-size: 40px; color: rgb(0, 0, 255);&quot;&gt;React App&lt;/font&gt;&lt;/b&gt;" style="rounded=0;whiteSpace=wrap;html=1;" parent="1" vertex="1">
          <mxGeometry x="280" y="370" width="430" height="140" as="geometry" />
        </mxCell>
        <mxCell id="fVFUJvYwx3jM81SzizFd-24" value="&lt;b&gt;&lt;font style=&quot;font-size: 30px; color: rgb(102, 102, 255);&quot;&gt;Frontend&lt;/font&gt;&lt;/b&gt;" style="text;strokeColor=none;align=center;fillColor=none;html=1;verticalAlign=middle;whiteSpace=wrap;rounded=0;" parent="1" vertex="1">
          <mxGeometry x="465" y="330" width="60" height="30" as="geometry" />
        </mxCell>
        <mxCell id="fVFUJvYwx3jM81SzizFd-26" value="" style="shape=flexArrow;endArrow=classic;startArrow=classic;html=1;rounded=0;exitX=0;exitY=0.5;exitDx=0;exitDy=0;entryX=0.5;entryY=1;entryDx=0;entryDy=0;" parent="1" source="fVFUJvYwx3jM81SzizFd-23" target="fVFUJvYwx3jM81SzizFd-19" edge="1">
          <mxGeometry width="100" height="100" relative="1" as="geometry">
            <mxPoint x="79.69" y="415" as="sourcePoint" />
            <mxPoint x="204.69" y="330" as="targetPoint" />
          </mxGeometry>
        </mxCell>
        <mxCell id="fVFUJvYwx3jM81SzizFd-32" value="User" style="shape=umlActor;verticalLabelPosition=bottom;verticalAlign=top;html=1;outlineConnect=0;labelBorderColor=none;fontStyle=1;fontSize=14;align=center;" parent="1" vertex="1">
          <mxGeometry x="49.69" y="430" width="30" height="80" as="geometry" />
        </mxCell>
        <mxCell id="fVFUJvYwx3jM81SzizFd-33" value="" style="endArrow=classic;startArrow=classic;html=1;rounded=0;entryX=-0.002;entryY=0.7;entryDx=0;entryDy=0;entryPerimeter=0;" parent="1" source="fVFUJvYwx3jM81SzizFd-32" target="fVFUJvYwx3jM81SzizFd-23" edge="1">
          <mxGeometry width="50" height="50" relative="1" as="geometry">
            <mxPoint x="400" y="420" as="sourcePoint" />
            <mxPoint x="240" y="459" as="targetPoint" />
          </mxGeometry>
        </mxCell>
        <mxCell id="2" value="" style="shape=image;verticalLabelPosition=bottom;labelBackgroundColor=default;verticalAlign=top;aspect=fixed;imageAspect=0;image=https://miro.medium.com/v2/resize:fit:700/1*7e4oQkig0t_45ql2Dlc0Pg.png;" vertex="1" parent="1">
          <mxGeometry x="111.53" y="113.25" width="80.47" height="30" as="geometry" />
        </mxCell>
        <mxCell id="4" value="" style="shape=flexArrow;endArrow=classic;startArrow=classic;html=1;rounded=0;exitX=0.267;exitY=-0.036;exitDx=0;exitDy=0;exitPerimeter=0;" edge="1" parent="1">
          <mxGeometry width="100" height="100" relative="1" as="geometry">
            <mxPoint x="695" y="365" as="sourcePoint" />
            <mxPoint x="690" y="210" as="targetPoint" />
          </mxGeometry>
        </mxCell>
        <mxCell id="6" value="" style="shape=flexArrow;endArrow=classic;startArrow=classic;html=1;rounded=0;exitX=0.267;exitY=-0.036;exitDx=0;exitDy=0;exitPerimeter=0;" edge="1" parent="1">
          <mxGeometry width="100" height="100" relative="1" as="geometry">
            <mxPoint x="305" y="368" as="sourcePoint" />
            <mxPoint x="300" y="213" as="targetPoint" />
          </mxGeometry>
        </mxCell>
      </root>
    </mxGraphModel>
  </diagram>
</mxfile>
